<svg xmlns="http://www.w3.org/2000/svg" width="1000" height="1000">
    <rect height="5" style="stroke-width:1;stroke:rgb(0,0,0);fill:rgb(255,0,0);opacity:1" width="5" x="10" y="10"/>
    <rect height="5" style="stroke-width:1;stroke:rgb(0,0,0);fill:rgb(255,0,0);opacity:1" width="5" x="10" y="20"/>
    <rect height="5" style="stroke-width:1;stroke:rgb(0,0,0);fill:rgb(255,0,0);opacity:1" width="5" x="10" y="30"/>
    <rect height="5" style="stroke-width:1;stroke:rgb(0,0,0);fill:rgb(255,0,0);opacity:1" width="5" x="10" y="40"/>
    <rect height="5" style="stroke-width:1;stroke:rgb(0,0,0);fill:rgb(255,0,0);opacity:1" width="5" x="10" y="50"/>
    <rect height="5" style="stroke-width:1;stroke:rgb(0,0,0);fill:rgb(255,0,0);opacity:1" width="5" x="10" y="60"/>
    <rect height="5" style="stroke-width:1;stroke:rgb(0,0,0);fill:rgb(255,0,0);opacity:1" width="5" x="10" y="70"/>
    <rect height="5" style="stroke-width:1;stroke:rgb(0,0,0);fill:rgb(255,0,0);opacity:1" width="5" x="10" y="80"/>
    <rect height="5" style="stroke-width:1;stroke:rgb(0,0,0);fill:rgb(255,0,0);opacity:1" width="5" x="10" y="90"/>
    <rect height="5" style="stroke-width:1;stroke:rgb(0,0,0);fill:rgb(255,0,0);opacity:1" width="5" x="10" y="100"/>
    <rect height="5" style="stroke-width:1;stroke:rgb(0,0,0);fill:rgb(255,0,0);opacity:1" width="5" x="10" y="110"/>
    <rect height="5" style="stroke-width:1;stroke:rgb(0,0,0);fill:rgb(255,0,0);opacity:1" width="5" x="10" y="120"/>
    <rect height="5" style="stroke-width:1;stroke:rgb(0,0,0);fill:rgb(255,0,0);opacity:1" width="5" x="10" y="130"/>
    <rect height="5" style="stroke-width:1;stroke:rgb(0,0,0);fill:rgb(255,0,0);opacity:1" width="5" x="10" y="140"/>
    <rect height="5" style="stroke-width:1;stroke:rgb(0,0,0);fill:rgb(255,0,0);opacity:1" width="5" x="10" y="150"/>
    <rect height="5" style="stroke-width:1;stroke:rgb(0,0,0);fill:rgb(255,0,0);opacity:1" width="5" x="10" y="160"/>
    <rect height="5" style="stroke-width:1;stroke:rgb(0,0,0);fill:rgb(255,0,0);opacity:1" width="5" x="10" y="170"/>
    <rect height="5" style="stroke-width:1;stroke:rgb(0,0,0);fill:rgb(255,0,0);opacity:1" width="5" x="10" y="180"/>
    <rect height="5" style="stroke-width:1;stroke:rgb(0,0,0);fill:rgb(255,0,0);opacity:1" width="5" x="10" y="190"/>
    <rect height="5" style="stroke-width:1;stroke:rgb(0,0,0);fill:rgb(255,0,0);opacity:1" width="5" x="10" y="200"/>
    <rect height="5" style="stroke-width:1;stroke:rgb(0,0,0);fill:rgb(255,0,0);opacity:1" width="5" x="10" y="210"/>
    <rect height="5" style="stroke-width:1;stroke:rgb(0,0,0);fill:rgb(255,0,0);opacity:1" width="5" x="10" y="220"/>
    <rect height="5" style="stroke-width:1;stroke:rgb(0,0,0);fill:rgb(255,0,0);opacity:1" width="5" x="10" y="230"/>
    <rect height="5" style="stroke-width:1;stroke:rgb(0,0,0);fill:rgb(255,0,0);opacity:1" width="5" x="10" y="240"/>
    <rect height="5" style="stroke-width:1;stroke:rgb(0,0,0);fill:rgb(255,0,0);opacity:1" width="5" x="10" y="250"/>
    <rect height="5" style="stroke-width:1;stroke:rgb(0,0,0);fill:rgb(255,0,0);opacity:1" width="5" x="10" y="260"/>
    <rect height="5" style="stroke-width:1;stroke:rgb(0,0,0);fill:rgb(255,0,0);opacity:1" width="5" x="10" y="270"/>
    <rect height="5" style="stroke-width:1;stroke:rgb(0,0,0);fill:rgb(255,0,0);opacity:1" width="5" x="10" y="280"/>
    <rect height="5" style="stroke-width:1;stroke:rgb(0,0,0);fill:rgb(255,0,0);opacity:1" width="5" x="10" y="290"/>
    <rect height="5" style="stroke-width:1;stroke:rgb(0,0,0);fill:rgb(255,0,0);opacity:1" width="5" x="10" y="300"/>
    <rect height="5" style="stroke-width:1;stroke:rgb(0,0,0);fill:rgb(255,0,0);opacity:1" width="5" x="10" y="310"/>
    <rect height="5" style="stroke-width:1;stroke:rgb(0,0,0);fill:rgb(255,0,0);opacity:1" width="5" x="10" y="320"/>
    <rect height="5" style="stroke-width:1;stroke:rgb(0,0,0);fill:rgb(255,0,0);opacity:1" width="5" x="10" y="330"/>
    <rect height="5" style="stroke-width:1;stroke:rgb(0,0,0);fill:rgb(255,0,0);opacity:1" width="5" x="10" y="340"/>
    <rect height="5" style="stroke-width:1;stroke:rgb(0,0,0);fill:rgb(255,0,0);opacity:1" width="5" x="10" y="350"/>
    <rect height="5" style="stroke-width:1;stroke:rgb(0,0,0);fill:rgb(255,0,0);opacity:1" width="5" x="10" y="360"/>
    <rect height="5" style="stroke-width:1;stroke:rgb(0,0,0);fill:rgb(255,0,0);opacity:1" width="5" x="10" y="370"/>
    <rect height="5" style="stroke-width:1;stroke:rgb(0,0,0);fill:rgb(255,0,0);opacity:1" width="5" x="10" y="380"/>
    <rect height="5" style="stroke-width:1;stroke:rgb(0,0,0);fill:rgb(255,0,0);opacity:1" width="5" x="10" y="390"/>
    <rect height="5" style="stroke-width:1;stroke:rgb(0,0,0);fill:rgb(255,0,0);opacity:1" width="5" x="10" y="400"/>
    <rect height="5" style="stroke-width:1;stroke:rgb(0,0,0);fill:rgb(255,0,0);opacity:1" width="5" x="10" y="410"/>
    <rect height="5" style="stroke-width:1;stroke:rgb(0,0,0);fill:rgb(255,0,0);opacity:1" width="5" x="10" y="420"/>
    <rect height="5" style="stroke-width:1;stroke:rgb(0,0,0);fill:rgb(255,0,0);opacity:1" width="5" x="10" y="430"/>
    <rect height="5" style="stroke-width:1;stroke:rgb(0,0,0);fill:rgb(255,0,0);opacity:1" width="5" x="10" y="440"/>
    <rect height="5" style="stroke-width:1;stroke:rgb(0,0,0);fill:rgb(255,0,0);opacity:1" width="5" x="10" y="450"/>
    <rect height="5" style="stroke-width:1;stroke:rgb(0,0,0);fill:rgb(255,0,0);opacity:1" width="5" x="10" y="460"/>
    <rect height="5" style="stroke-width:1;stroke:rgb(0,0,0);fill:rgb(255,0,0);opacity:1" width="5" x="10" y="470"/>
    <rect height="5" style="stroke-width:1;stroke:rgb(0,0,0);fill:rgb(255,0,0);opacity:1" width="5" x="10" y="480"/>
    <rect height="5" style="stroke-width:1;stroke:rgb(0,0,0);fill:rgb(255,0,0);opacity:1" width="5" x="10" y="490"/>
</svg>