<svg xmlns="http://www.w3.org/2000/svg" width="500" height="500">
    <rect height="100" style="stroke-width:1;stroke:rgb(0,0,0);fill:rgb(102,0,170);opacity:1" width="100" x="30" y="30"/>
    <rect height="200" style="stroke-width:1;stroke:rgb(0,0,0);fill:rgb(102,0,170);opacity:1" width="100" x="200" y="100"/>
    <line style="stroke-width:2.5;stroke:rgb(0,255,0)" x1="30" x2="450" y1="30" y2="405"/>
    <line style="stroke-width:2.5;stroke:rgb(0,255,0)" x1="30" x2="450" y1="30" y2="405"/>
    <line style="stroke-width:2.5;stroke:rgb(0,255,0)" x1="30" x2="450" y1="30" y2="405"/>
    <line style="stroke-width:2.5;stroke:rgb(0,255,0)" x1="30" x2="450" y1="30" y2="405"/>
    <line style="stroke-width:2.5;stroke:rgb(0,255,0)" x1="30" x2="450" y1="30" y2="405"/>
    <line style="stroke-width:2.5;stroke:rgb(0,255,0)" x1="30" x2="450" y1="30" y2="405"/>
    <line style="stroke-width:2.5;stroke:rgb(0,255,0)" x1="30" x2="450" y1="30" y2="405"/>
    <line style="stroke-width:2.5;stroke:rgb(0,255,0)" x1="30" x2="450" y1="30" y2="405"/>
    <line style="stroke-width:2.5;stroke:rgb(0,255,0)" x1="30" x2="450" y1="30" y2="405"/>
    <line style="stroke-width:2.5;stroke:rgb(0,255,0)" x1="30" x2="450" y1="30" y2="405"/>
    <line style="stroke-width:2.5;stroke:rgb(0,255,0)" x1="30" x2="450" y1="30" y2="105"/>
    <line style="stroke-width:2.5;stroke:rgb(0,255,0)" x1="30" x2="450" y1="30" y2="105"/>
    <line style="stroke-width:2.5;stroke:rgb(0,255,0)" x1="30" x2="450" y1="30" y2="105"/>
    <line style="stroke-width:2.5;stroke:rgb(0,255,0)" x1="30" x2="450" y1="30" y2="105"/>
    <line style="stroke-width:2.5;stroke:rgb(0,255,0)" x1="30" x2="450" y1="30" y2="105"/>
    <line style="stroke-width:2.5;stroke:rgb(0,255,0)" x1="30" x2="450" y1="30" y2="105"/>
    <line style="stroke-width:2.5;stroke:rgb(0,255,0)" x1="30" x2="450" y1="30" y2="105"/>
    <line style="stroke-width:2.5;stroke:rgb(0,255,0)" x1="30" x2="450" y1="30" y2="105"/>
    <rect height="30" style="stroke-width:1;stroke:rgb(0,0,0);fill:rgb(0,255,0);opacity:1" width="30" x="200" y="100"/>
</svg>